PathFileType	4	(X/Y/Z)	./resultDataOpenSim/trcMotMarkerGrf/sub06/qtm-02-08.trc
DataRate	CameraRate	NumFrames	NumMarkers	Units	OrigDataRate	OrigDataStartFrame	OrigNumFrames
250.000000	250.000000	7	24	m	250.000000	428	489
Frame#	Time	L.Toe.Tip			R.Toe.Tip			L.Ankle.Lat			R.Ankle.Lat			L.Ankle.Med			R.Ankle.Med			L.Heel			R.Heel			L.Knee.Lat			R.Knee.Lat			L.Knee.Med			R.Knee.Med			L.Thigh.Upper			R.Thigh.Upper			L.ASIS			R.ASIS			V.Sacral			L.Acromium			R.Acromium			C7			L.Elbow			R.Elbow			L.Wrist.Lat			R.Wrist.Lat
		X1	Y1	Z1	X2	Y2	Z2	X3	Y3	Z3	X4	Y4	Z4	X5	Y5	Z5	X6	Y6	Z6	X7	Y7	Z7	X8	Y8	Z8	X9	Y9	Z9	X10	Y10	Z10	X11	Y11	Z11	X12	Y12	Z12	X13	Y13	Z13	X14	Y14	Z14	X15	Y15	Z15	X16	Y16	Z16	X17	Y17	Z17	X18	Y18	Z18	X19	Y19	Z19	X20	Y20	Z20	X21	Y21	Z21	X22	Y22	Z22	X23	Y23	Z23	X24	Y24	Z24

428	1.708	1.6472813	0.033651841	0.0047669257	1.1420381	0.085076929	0.15944924	1.5237486	0.066942321	-0.029420796	1.1302305	0.22335496	0.19248629	1.5208476	0.081060502	0.05670195	1.1705331	0.21538686	0.11261631	1.4460373	0.039078674	0.007161257	1.1032993	0.26648181	0.12919549	1.584205	0.43751618	-0.040058707	1.4637601	0.4066251	0.23350024	1.550963	0.43335252	0.075705101	1.4667584	0.38600535	0.098482926	1.4723295	0.81969357	-0.1120423	1.4013409	0.76813123	0.22552272	1.5293811	0.8596041	-0.055886556	1.5051306	0.83550688	0.18770887	1.3232693	0.91264056	0.059137477	1.4254396	1.3201572	-0.132459	1.431349	1.3201813	0.23144762	1.347915	1.3578188	0.049148307	1.3439465	1.0174858	-0.19014562	1.4103946	0.99666507	0.30420902	1.4493213	0.79791485	-0.22250229	1.6300186	0.88245867	0.27234756
429	1.712	1.64726	0.03364309	0.0048129176	1.1592923	0.08585536	0.16016613	1.5237315	0.066996937	-0.029389678	1.1437832	0.22381756	0.1923585	1.5208004	0.08112662	0.056748593	1.1843796	0.2162791	0.11263614	1.4460015	0.039182682	0.0070067728	1.1158337	0.26608068	0.12896831	1.5855937	0.43733788	-0.039831699	1.4758054	0.40936052	0.23379131	1.551559	0.43348175	0.075783531	1.4792433	0.3886173	0.098755842	1.477421	0.82052949	-0.11225957	1.4077297	0.7701158	0.22549144	1.534981	0.8608076	-0.05617147	1.5094866	0.83742853	0.18819405	1.3291245	0.91442462	0.058707722	1.4318553	1.3220137	-0.13248225	1.4364617	1.3220619	0.23146476	1.3537838	1.3594551	0.048776218	1.3521328	1.0185301	-0.19017286	1.4132939	0.9985819	0.30327408	1.4604075	0.80021302	-0.22173385	1.6315311	0.88030168	0.27310343
430	1.716	1.6472375	0.033626086	0.0048719274	1.1765711	0.086446848	0.16102745	1.5237284	0.067027943	-0.029335058	1.1576495	0.22404779	0.19223354	1.5207209	0.081188074	0.056813785	1.1983807	0.21685663	0.11272735	1.4459731	0.039290929	0.0069262981	1.1286355	0.26539645	0.12861455	1.5869694	0.43720297	-0.039551276	1.4877919	0.41222377	0.2340192	1.5517873	0.43359938	0.075860909	1.4915755	0.3912722	0.09900965	1.4823348	0.82127909	-0.11245375	1.4141855	0.77213138	0.22550239	1.5404917	0.86200675	-0.056448255	1.5146816	0.83946684	0.18839816	1.3349951	0.91620823	0.058294926	1.4382438	1.323903	-0.1324816	1.4415761	1.3239459	0.23148791	1.35966	1.3610825	0.048449273	1.3603111	1.0195937	-0.19016296	1.4169296	1.0005081	0.30230381	1.4715093	0.80259547	-0.22092496	1.6328975	0.87822874	0.27390404
431	1.72	1.6472055	0.033606519	0.0049353372	1.1937885	0.086827021	0.1620598	1.5237203	0.06706258	-0.02926829	1.1717062	0.22402888	0.19212005	1.520599	0.081248329	0.056888467	1.2125514	0.21712553	0.11288237	1.4459541	0.039407919	0.0069676656	1.1416727	0.26441591	0.12815827	1.5883292	0.43709807	-0.039237486	1.4996288	0.41520292	0.23420988	1.5518737	0.43372335	0.075959016	1.5037498	0.3939471	0.099245646	1.4871347	0.82193787	-0.11262612	1.4207053	0.77417273	0.2255535	1.5458967	0.86320512	-0.056711985	1.52029	0.84158076	0.18845822	1.3408126	0.91795754	0.057909744	1.4446126	1.3258241	-0.13246639	1.4467001	1.3258261	0.23151198	1.3655475	1.3627015	0.048170673	1.3684852	1.020675	-0.19012672	1.4210993	1.0024715	0.30131412	1.4826051	0.80504968	-0.2200853	1.6341221	0.87624291	0.27474772
432	1.724	1.647167	0.033591225	0.0049979153	1.2110108	0.087026593	0.16323692	1.5237117	0.067121679	-0.029185528	1.1857643	0.22373554	0.19201083	1.5204445	0.081314808	0.056965504	1.226936	0.21709863	0.11313729	1.4459416	0.039541467	0.0070902404	1.1549079	0.26313183	0.12763942	1.5896855	0.43701114	-0.038907328	1.5112849	0.41829373	0.23437786	1.5521847	0.43388838	0.076116772	1.5158986	0.39663036	0.099446356	1.491855	0.82251939	-0.11278041	1.4272861	0.77623469	0.22564275	1.5512459	0.86440849	-0.0569829	1.5260267	0.84373094	0.18846273	1.3465527	0.91963248	0.057553878	1.4509642	1.327769	-0.13243859	1.4518416	1.3276911	0.2315286	1.3714461	1.3643099	0.047929809	1.376656	1.0217789	-0.19007908	1.4253513	1.0044857	0.30034393	1.4937114	0.80757052	-0.21922493	1.6352216	0.87435155	0.27562901
433	1.728	1.6471354	0.033585803	0.0050564706	1.22833	0.087086447	0.16451987	1.5237099	0.06721162	-0.029091144	1.1998108	0.223176	0.19188919	1.5202933	0.081397372	0.057041133	1.2415373	0.21679951	0.11349323	1.4459319	0.039703406	0.0072294344	1.1682634	0.26153181	0.12717814	1.5910509	0.43693591	-0.038577412	1.522809	0.42147964	0.2345165	1.552954	0.43409766	0.07635929	1.5281647	0.39933801	0.099600738	1.4965373	0.82306097	-0.11290826	1.4339248	0.77831213	0.22576814	1.5566496	0.86562385	-0.057297758	1.5317939	0.84589692	0.18843321	1.3523365	0.9211989	0.057215824	1.4572953	1.3297193	-0.13239241	1.457005	1.3295325	0.23153086	1.3773503	1.3659002	0.047712069	1.3848144	1.0229062	-0.19002996	1.4292866	1.0065404	0.29943015	1.5048509	0.81015743	-0.2183469	1.6362102	0.87256099	0.27654069
434	1.732	1.6471225	0.033590981	0.0051085679	1.2457898	0.087031276	0.16587696	1.5237184	0.067329458	-0.028999456	1.21402	0.22235387	0.19176358	1.5201873	0.081504384	0.057113764	1.2562371	0.21627367	0.11380128	1.4459242	0.039901568	0.0073635716	1.1816224	0.25960329	0.126957	1.5924066	0.43687433	-0.038264161	1.5342557	0.42473702	0.23461962	1.5540928	0.43431348	0.076667572	1.540534	0.40213221	0.099713041	1.5012086	0.82360418	-0.11299845	1.4406184	0.7803999	0.22592766	1.5621797	0.86685469	-0.057669758	1.5375956	0.84807169	0.18835804	1.3583989	0.92266627	0.056880502	1.4636033	1.331658	-0.13232789	1.4622035	1.3313469	0.23151727	1.3832524	1.3674679	0.04750982	1.3929536	1.0240514	-0.18998381	1.4327348	1.0086092	0.2985868	1.5160601	0.81280729	-0.21744831	1.6371059	0.87086645	0.27747368
